<svg xmlns="http://www.w3.org/2000/svg" viewBox="0 0 100 100" fill="#FFFFFF">
  <rect width="100" height="100"/>
  <path d="M89.6,35.45c-0.75-2.18-2.79-3.65-5.1-3.65H52.56c-0.94,0-1.42-1.14-0.75-1.81l14.83-14.83c2.73-2.73,0.05-4.39-1.19-4.97c-4.48-1.78-9.34-2.82-14.42-2.95C26.65,6.66,6.83,27.14,8.18,51.49c0.2,3.52,0.83,6.92,1.84,10.15c0.7,2.25,2.79,3.77,5.14,3.77h32.28c0.94,0,1.42,1.14,0.75,1.81L35.81,79.6l-3.09,3.13c-2.73,2.77-0.05,4.45,1.19,5.03c0.62,0.25,1.26,0.48,1.9,0.71c5.9,2.13,12.41,2.97,19.21,2.18c18.97-2.2,34.1-17.14,36.52-36.08C92.39,47.86,91.64,41.35,89.6,35.45z"/>
</svg>
