<svg xmlns="http://www.w3.org/2000/svg" viewBox="0 0 100 100">
  <rect width="100" height="100" fill="#FFFFFF"/>
  <path fill="#010202" d="M35.68,64.4c0.37,3.77,1.92,6.47,4.66,8.1c2.74,1.63,6.07,2.44,9.99,2.44c4.29,0,7.56-0.85,9.82-2.55
  c2.26-1.7,3.38-3.7,3.38-5.99c0-2.29-1.11-4.09-3.33-5.38c-2.22-1.29-4.99-2.4-8.32-3.33c-3.33-0.92-6.96-1.87-10.88-2.83
  c-3.92-0.96-7.55-2.29-10.88-4c-3.33-1.7-6.1-3.94-8.32-6.71c-2.22-2.77-3.33-6.45-3.33-11.04c0-3.77,0.78-7.12,2.33-10.04
  c1.55-2.92,3.68-5.38,6.38-7.38c2.7-2,5.9-3.51,9.6-4.55c3.7-1.04,7.69-1.55,11.99-1.55c4.96,0,9.38,0.61,13.26,1.83
  c3.88,1.22,7.18,2.94,9.88,5.16c2.7,2.22,4.75,4.87,6.16,7.94c1.4,3.07,2.18,6.49,2.33,10.27H62.54c-0.15-1.18-0.48-2.39-1-3.61
  c-0.52-1.22-1.3-2.35-2.33-3.38c-1.04-1.04-2.35-1.89-3.94-2.55c-1.59-0.67-3.53-1-5.83-1c-3.18,0-5.85,0.65-7.99,1.94
  c-2.15,1.3-3.22,3.02-3.22,5.16c0,2.22,1.11,3.98,3.33,5.27c2.22,1.3,5.01,2.46,8.38,3.5c3.37,1.04,6.99,2.09,10.88,3.16
  c3.88,1.07,7.51,2.5,10.88,4.27c3.37,1.78,6.16,4.09,8.38,6.94C82.3,57.32,83.4,61,83.4,65.51c0,4-0.87,7.51-2.61,10.54
  c-1.74,3.03-4.14,5.55-7.21,7.55c-3.07,2-6.7,3.51-10.88,4.55c-4.18,1.04-8.71,1.55-13.6,1.55c-5.25,0-9.88-0.63-13.87-1.89
  c-4-1.26-7.36-3-10.1-5.22c-2.74-2.22-4.83-4.86-6.27-7.94c-1.44-3.07-2.2-6.45-2.27-10.15L35.68,64.4z"/>
</svg>

